<svg width="24" height="24" viewBox="0 0 24 24" fill="none" xmlns="http://www.w3.org/2000/svg">
<path fill-rule="evenodd" clip-rule="evenodd" d="M12 13.8C13.273 13.8 14.4939 13.2943 15.3941 12.3941C16.2942 11.494 16.8 10.2731 16.8 9.00001C16.8 7.72697 16.2942 6.50607 15.3941 5.6059C14.4939 4.70572 13.273 4.20001 12 4.20001C10.7269 4.20001 9.50601 4.70572 8.60584 5.6059C7.70566 6.50607 7.19995 7.72697 7.19995 9.00001C7.19995 10.2731 7.70566 11.494 8.60584 12.3941C9.50601 13.2943 10.7269 13.8 12 13.8ZM12 12.6C12.4727 12.6 12.9408 12.5069 13.3776 12.326C13.8144 12.1451 14.2112 11.8799 14.5455 11.5456C14.8798 11.2113 15.145 10.8144 15.3259 10.3777C15.5068 9.9409 15.6 9.47277 15.6 9.00001C15.6 8.52725 15.5068 8.05912 15.3259 7.62235C15.145 7.18558 14.8798 6.78872 14.5455 6.45443C14.2112 6.12014 13.8144 5.85496 13.3776 5.67405C12.9408 5.49313 12.4727 5.40001 12 5.40001C11.0452 5.40001 10.1295 5.7793 9.45437 6.45443C8.77924 7.12956 8.39995 8.04523 8.39995 9.00001C8.39995 9.95479 8.77924 10.8705 9.45437 11.5456C10.1295 12.2207 11.0452 12.6 12 12.6Z" fill="#838383"/>
<path fill-rule="evenodd" clip-rule="evenodd" d="M24 12C24 18.6276 18.6276 24 12 24C5.3724 24 0 18.6276 0 12C0 5.3724 5.3724 0 12 0C18.6276 0 24 5.3724 24 12ZM17.778 21.126C16.0506 22.2225 14.0461 22.8033 12 22.8C9.90509 22.8032 7.85488 22.1943 6.1014 21.048C5.9574 20.868 5.811 20.682 5.6634 20.49C5.4919 20.2651 5.39933 19.9899 5.4 19.707C5.4 19.0608 5.8644 18.519 6.4854 18.4284C10.5924 17.8284 13.4202 17.88 17.5326 18.4494C17.8304 18.4926 18.1026 18.642 18.2988 18.8702C18.495 19.0984 18.602 19.3899 18.6 19.6908C18.6 19.9788 18.501 20.2584 18.3222 20.4768C18.138 20.7012 17.9562 20.9178 17.778 21.126ZM19.791 19.4796C19.695 18.3564 18.8424 17.4192 17.697 17.2608C13.4874 16.6782 10.545 16.6224 6.312 17.241C5.16 17.409 4.311 18.3546 4.2102 19.4808C2.2754 17.4714 1.19619 14.7894 1.2 12C1.2 6.0354 6.0354 1.2 12 1.2C17.9646 1.2 22.8 6.0354 22.8 12C22.8038 14.7889 21.7251 17.4703 19.791 19.4796Z" fill="#838383"/>
</svg>
