<svg width="19" height="19" viewBox="0 0 19 19" fill="none" xmlns="http://www.w3.org/2000/svg">
<path fill-rule="evenodd" clip-rule="evenodd" d="M11.9591 13.1161C10.4889 14.2909 8.62461 14.8581 6.74925 14.7012C4.87389 14.5443 3.12977 13.6753 1.87512 12.2726C0.620462 10.8698 -0.0494924 9.03991 0.00285155 7.15862C0.0551955 5.27733 0.825864 3.48749 2.15658 2.1567C3.48729 0.825912 5.27703 0.0551987 7.15821 0.00285172C9.03939 -0.0494953 10.8692 0.620498 12.2719 1.87523C13.6745 3.12995 14.5435 4.87417 14.7004 6.74964C14.8573 8.62511 14.2901 10.4895 13.1154 11.9598L18.7396 17.5833C18.82 17.6582 18.8845 17.7485 18.9292 17.8489C18.9739 17.9492 18.9979 18.0576 18.9999 18.1674C19.0018 18.2773 18.9816 18.3864 18.9405 18.4883C18.8993 18.5901 18.8381 18.6827 18.7604 18.7604C18.6827 18.8381 18.5902 18.8993 18.4883 18.9405C18.3864 18.9816 18.2773 19.0018 18.1675 18.9999C18.0576 18.9979 17.9493 18.9739 17.8489 18.9292C17.7486 18.8845 17.6582 18.82 17.5833 18.7396L11.9591 13.1161ZM3.3133 11.4122C2.51269 10.6114 1.96741 9.59131 1.74636 8.48073C1.52532 7.37016 1.63844 6.21898 2.07142 5.17268C2.50441 4.12638 3.23783 3.23192 4.17899 2.60235C5.12015 1.97278 6.22681 1.63636 7.3591 1.6356C8.4914 1.63483 9.59851 1.96977 10.5405 2.59807C11.4825 3.22637 12.2171 4.11984 12.6515 5.16556C13.0859 6.21127 13.2006 7.3623 12.9811 8.47317C12.7615 9.58404 12.2176 10.6049 11.4181 11.4067L11.4126 11.4122L11.4072 11.4165C10.3328 12.4885 8.87693 13.0901 7.35932 13.0893C5.84172 13.0884 4.3865 12.4852 3.3133 11.4122Z" fill="#838383"/>
</svg>
