<svg width="23" height="23" viewBox="0 0 23 23" fill="none" xmlns="http://www.w3.org/2000/svg">
<path d="M21.62 6.70936H15.9632C16.4902 6.4667 16.9797 6.14375 17.4156 5.75109C17.7179 5.47113 17.9613 5.12915 18.1307 4.74658C18.3001 4.36401 18.3918 3.94911 18.4 3.52789C18.413 3.06111 18.3344 2.59647 18.1688 2.16248C18.0033 1.7285 17.7544 1.33431 17.4374 1.0041C17.1204 0.673897 16.7419 0.414634 16.3253 0.242219C15.9086 0.0698041 15.4625 -0.0121277 15.0144 0.00144934C14.61 0.0100011 14.2117 0.105493 13.8444 0.281937C13.4771 0.458381 13.1488 0.711971 12.88 1.0268C12.2003 1.82576 11.7726 2.86669 11.5 3.86449C11.2298 2.86669 10.802 1.82816 10.12 1.0268C9.85123 0.711971 9.5229 0.458381 9.15561 0.281937C8.78832 0.105493 8.38999 0.0100011 7.9856 0.00144934C7.53746 -0.0121277 7.09138 0.0698041 6.67472 0.242219C6.25807 0.414634 5.87963 0.673897 5.56261 1.0041C5.24559 1.33431 4.99668 1.7285 4.83115 2.16248C4.66563 2.59647 4.58697 3.06111 4.6 3.52789C4.60821 3.94911 4.69989 4.36401 4.86929 4.74658C5.03868 5.12915 5.28214 5.47113 5.5844 5.75109C6.02026 6.14375 6.50977 6.4667 7.03685 6.70936H1.38C1.014 6.70936 0.662993 6.8608 0.404193 7.13037C0.145392 7.39993 0 7.76554 0 8.14677V11.9799C0 12.3611 0.145392 12.7267 0.404193 12.9963C0.662993 13.2658 1.014 13.4173 1.38 13.4173H1.84V21.5626C1.84 21.9438 1.98539 22.3094 2.24419 22.579C2.50299 22.8486 2.854 23 3.22 23H19.78C20.146 23 20.497 22.8486 20.7558 22.579C21.0146 22.3094 21.16 21.9438 21.16 21.5626V13.4173H21.62C21.986 13.4173 22.337 13.2658 22.5958 12.9963C22.8546 12.7267 23 12.3611 23 11.9799V8.14677C23 7.76554 22.8546 7.39993 22.5958 7.13037C22.337 6.8608 21.986 6.70936 21.62 6.70936ZM13.57 1.66166C13.7557 1.44539 13.9823 1.2714 14.2356 1.15062C14.4889 1.02983 14.7635 0.964841 15.042 0.959722H15.1122C15.429 0.960072 15.7425 1.02654 16.0342 1.1552C16.3259 1.28387 16.59 1.47211 16.8107 1.70883C17.0314 1.94554 17.2044 2.22593 17.3193 2.53342C17.4343 2.84092 17.4889 3.16929 17.48 3.49915C17.475 3.78926 17.4126 4.07518 17.2966 4.339C17.1807 4.60283 17.0137 4.83888 16.8061 5.03238C15.4158 6.31407 13.003 6.61473 11.9761 6.68421C12.0474 5.62292 12.3349 3.11584 13.57 1.66166ZM5.52 3.49915C5.51109 3.16929 5.56572 2.84092 5.68068 2.53342C5.79564 2.22593 5.96858 1.94554 6.18931 1.70883C6.41003 1.47211 6.67405 1.28387 6.96578 1.1552C7.25752 1.02654 7.57104 0.960072 7.88785 0.959722H7.958C8.23654 0.964841 8.51106 1.02983 8.76436 1.15062C9.01765 1.2714 9.24427 1.44539 9.43 1.66166C10.6617 3.10985 10.9492 5.62292 11.0159 6.69259C9.9935 6.62312 7.5808 6.32246 6.18585 5.04077C5.97875 4.84556 5.81268 4.60783 5.69808 4.34251C5.58349 4.0772 5.52286 3.79006 5.52 3.49915ZM0.92 11.9799V8.14677C0.92 8.01969 0.968464 7.89782 1.05473 7.80797C1.141 7.71811 1.258 7.66763 1.38 7.66763H11.04V12.459H1.38C1.258 12.459 1.141 12.4085 1.05473 12.3187C0.968464 12.2288 0.92 12.1069 0.92 11.9799ZM2.76 21.5626V13.4173H11.04V22.0417H3.22C3.098 22.0417 2.981 21.9912 2.89473 21.9014C2.80846 21.8115 2.76 21.6897 2.76 21.5626ZM20.24 21.5626C20.24 21.6897 20.1915 21.8115 20.1053 21.9014C20.019 21.9912 19.902 22.0417 19.78 22.0417H11.96V13.4173H20.24V21.5626ZM22.08 11.9799C22.08 12.1069 22.0315 12.2288 21.9453 12.3187C21.859 12.4085 21.742 12.459 21.62 12.459H11.96V7.66763H21.62C21.742 7.66763 21.859 7.71811 21.9453 7.80797C22.0315 7.89782 22.08 8.01969 22.08 8.14677V11.9799Z" fill="#838383"/>
</svg>
