<svg width="18" height="19" viewBox="0 0 18 19" fill="none" xmlns="http://www.w3.org/2000/svg">
<path d="M18 17.7409L12.972 12.5118C14.1803 11.0032 14.7828 9.0683 14.6542 7.1095C14.5256 5.1507 13.6759 3.31886 12.2817 1.99504C10.8876 0.671229 9.05634 -0.0426289 7.16898 0.00197074C5.28163 0.0465704 3.48346 0.846194 2.14855 2.2345C0.813648 3.6228 0.0447792 5.49289 0.00189494 7.45574C-0.0409893 9.41859 0.645413 11.3231 1.91831 12.773C3.19121 14.2229 4.95259 15.1067 6.83605 15.2404C8.71952 15.3741 10.58 14.7475 12.0306 13.4909L17.0586 18.72L18 17.7409ZM1.35538 7.64134C1.35538 6.40882 1.70681 5.20397 2.36522 4.17917C3.02364 3.15436 3.95947 2.35562 5.05438 1.88396C6.14928 1.41229 7.35409 1.28888 8.51643 1.52933C9.67878 1.76979 10.7465 2.3633 11.5845 3.23483C12.4225 4.10635 12.9932 5.21675 13.2244 6.42559C13.4556 7.63443 13.3369 8.88742 12.8834 10.0261C12.4299 11.1648 11.6618 12.1381 10.6765 12.8228C9.69106 13.5076 8.53256 13.8731 7.34744 13.8731C5.75879 13.8713 4.23571 13.2141 3.11236 12.0458C1.98901 10.8775 1.35714 9.29354 1.35538 7.64134Z" fill="#5B5B5B"/>
</svg>
