<svg width="23" height="19" viewBox="0 0 23 19" fill="none" xmlns="http://www.w3.org/2000/svg">
<path id="Vector" d="M22.685 9.07746L20.2475 3.54283C20.1853 3.39992 20.0813 3.27798 19.9483 3.19222C19.8154 3.10645 19.6595 3.06065 19.5 3.06052H17.0625V1.4792C17.0625 1.2695 16.9769 1.0684 16.8245 0.920117C16.6722 0.771839 16.4655 0.688538 16.25 0.688538H0.8125C0.597012 0.688538 0.390349 0.771839 0.237976 0.920117C0.0856024 1.0684 0 1.2695 0 1.4792V14.9205C0 15.1302 0.0856024 15.3313 0.237976 15.4795C0.390349 15.6278 0.597012 15.7111 0.8125 15.7111H2.55125C2.73835 16.3811 3.14681 16.9726 3.71361 17.3942C4.28041 17.8159 4.97404 18.0444 5.6875 18.0444C6.40096 18.0444 7.09459 17.8159 7.66139 17.3942C8.22819 16.9726 8.63665 16.3811 8.82375 15.7111H13.9262C14.1134 16.3811 14.5218 16.9726 15.0886 17.3942C15.6554 17.8159 16.349 18.0444 17.0625 18.0444C17.776 18.0444 18.4696 17.8159 19.0364 17.3942C19.6032 16.9726 20.0116 16.3811 20.1987 15.7111H21.9375C22.153 15.7111 22.3597 15.6278 22.512 15.4795C22.6644 15.3313 22.75 15.1302 22.75 14.9205V9.38582C22.7498 9.27983 22.7277 9.17497 22.685 9.07746ZM17.0625 4.64185H18.9638L20.7025 8.59516H17.0625V4.64185ZM5.6875 16.5018C5.36611 16.5018 5.05193 16.409 4.7847 16.2353C4.51747 16.0615 4.30919 15.8146 4.1862 15.5256C4.0632 15.2367 4.03102 14.9187 4.09372 14.612C4.15642 14.3052 4.31119 14.0234 4.53845 13.8023C4.76571 13.5811 5.05526 13.4305 5.37048 13.3695C5.6857 13.3085 6.01243 13.3398 6.30936 13.4595C6.60629 13.5792 6.86008 13.7819 7.03864 14.0419C7.2172 14.302 7.3125 14.6077 7.3125 14.9205C7.3125 15.3398 7.14129 15.7421 6.83655 16.0386C6.5318 16.3352 6.11848 16.5018 5.6875 16.5018ZM13.9262 14.1298H8.82375C8.63665 13.4598 8.22819 12.8684 7.66139 12.4467C7.09459 12.025 6.40096 11.7965 5.6875 11.7965C4.97404 11.7965 4.28041 12.025 3.71361 12.4467C3.14681 12.8684 2.73835 13.4598 2.55125 14.1298H1.625V2.26986H15.4375V12.2006C15.0675 12.4095 14.7436 12.6875 14.4842 13.0186C14.2249 13.3496 14.0353 13.7273 13.9262 14.1298ZM17.0625 16.5018C16.7411 16.5018 16.4269 16.409 16.1597 16.2353C15.8925 16.0615 15.6842 15.8146 15.5612 15.5256C15.4382 15.2367 15.406 14.9187 15.4687 14.612C15.5314 14.3052 15.6862 14.0234 15.9135 13.8023C16.1407 13.5811 16.4303 13.4305 16.7455 13.3695C17.0607 13.3085 17.3874 13.3398 17.6844 13.4595C17.9813 13.5792 18.2351 13.7819 18.4136 14.0419C18.5922 14.302 18.6875 14.6077 18.6875 14.9205C18.6875 15.3398 18.5163 15.7421 18.2115 16.0386C17.9068 16.3352 17.4935 16.5018 17.0625 16.5018ZM21.125 14.1298H20.1987C20.0191 13.4526 19.6138 12.8525 19.0463 12.4233C18.4789 11.9941 17.7812 11.7601 17.0625 11.7578V10.1765H21.125V14.1298Z" fill="#6F6F6F"/>
</svg>
