<svg width="25" height="28" viewBox="0 0 25 28" fill="none" xmlns="http://www.w3.org/2000/svg">
<path d="M0 5.34375C0 5.13655 0.08231 4.93784 0.228823 4.79132C0.375336 4.64481 0.57405 4.5625 0.78125 4.5625H3.125C3.29927 4.56255 3.46852 4.62086 3.60583 4.72816C3.74314 4.83547 3.84064 4.9856 3.88281 5.15469L4.51562 7.6875H22.6562C22.771 7.68761 22.8842 7.71297 22.988 7.7618C23.0919 7.81062 23.1836 7.88171 23.2569 7.97001C23.3301 8.0583 23.383 8.16164 23.4118 8.27268C23.4406 8.38373 23.4445 8.49975 23.4234 8.6125L21.0797 21.1125C21.0462 21.2915 20.9512 21.4532 20.8111 21.5696C20.671 21.686 20.4946 21.7498 20.3125 21.75H6.25C6.06786 21.7498 5.89151 21.686 5.75142 21.5696C5.61134 21.4532 5.51633 21.2915 5.48281 21.1125L3.14062 8.63594L2.51562 6.125H0.78125C0.57405 6.125 0.375336 6.04269 0.228823 5.89618C0.08231 5.74966 0 5.55095 0 5.34375ZM4.84687 9.25L6.89844 20.1875H19.6641L21.7156 9.25H4.84687ZM7.8125 21.75C6.9837 21.75 6.18884 22.0792 5.60279 22.6653C5.01674 23.2513 4.6875 24.0462 4.6875 24.875C4.6875 25.7038 5.01674 26.4987 5.60279 27.0847C6.18884 27.6708 6.9837 28 7.8125 28C8.6413 28 9.43616 27.6708 10.0222 27.0847C10.6083 26.4987 10.9375 25.7038 10.9375 24.875C10.9375 24.0462 10.6083 23.2513 10.0222 22.6653C9.43616 22.0792 8.6413 21.75 7.8125 21.75ZM18.75 21.75C17.9212 21.75 17.1263 22.0792 16.5403 22.6653C15.9542 23.2513 15.625 24.0462 15.625 24.875C15.625 25.7038 15.9542 26.4987 16.5403 27.0847C17.1263 27.6708 17.9212 28 18.75 28C19.5788 28 20.3737 27.6708 20.9597 27.0847C21.5458 26.4987 21.875 25.7038 21.875 24.875C21.875 24.0462 21.5458 23.2513 20.9597 22.6653C20.3737 22.0792 19.5788 21.75 18.75 21.75ZM7.8125 23.3125C8.2269 23.3125 8.62433 23.4771 8.91735 23.7701C9.21038 24.0632 9.375 24.4606 9.375 24.875C9.375 25.2894 9.21038 25.6868 8.91735 25.9799C8.62433 26.2729 8.2269 26.4375 7.8125 26.4375C7.3981 26.4375 7.00067 26.2729 6.70765 25.9799C6.41462 25.6868 6.25 25.2894 6.25 24.875C6.25 24.4606 6.41462 24.0632 6.70765 23.7701C7.00067 23.4771 7.3981 23.3125 7.8125 23.3125ZM18.75 23.3125C19.1644 23.3125 19.5618 23.4771 19.8549 23.7701C20.1479 24.0632 20.3125 24.4606 20.3125 24.875C20.3125 25.2894 20.1479 25.6868 19.8549 25.9799C19.5618 26.2729 19.1644 26.4375 18.75 26.4375C18.3356 26.4375 17.9382 26.2729 17.6451 25.9799C17.3521 25.6868 17.1875 25.2894 17.1875 24.875C17.1875 24.4606 17.3521 24.0632 17.6451 23.7701C17.9382 23.4771 18.3356 23.3125 18.75 23.3125Z" fill="#838383"/>
<circle cx="19.5" cy="5.5" r="5.5" fill="#FF3A3A"/>
<path d="M18.259 8V7.524L20.254 5.599C20.4313 5.431 20.562 5.284 20.646 5.158C20.7347 5.02733 20.793 4.90833 20.821 4.801C20.8537 4.689 20.87 4.58167 20.87 4.479C20.87 4.227 20.7813 4.02867 20.604 3.884C20.4267 3.73933 20.1677 3.667 19.827 3.667C19.5657 3.667 19.33 3.71133 19.12 3.8C18.91 3.884 18.728 4.017 18.574 4.199L18.098 3.786C18.2847 3.548 18.5343 3.366 18.847 3.24C19.1643 3.10933 19.512 3.044 19.89 3.044C20.2307 3.044 20.527 3.1 20.779 3.212C21.031 3.31933 21.2247 3.47567 21.36 3.681C21.5 3.88633 21.57 4.129 21.57 4.409C21.57 4.56767 21.549 4.724 21.507 4.878C21.465 5.032 21.3857 5.19533 21.269 5.368C21.1523 5.54067 20.9843 5.73433 20.765 5.949L18.987 7.664L18.819 7.391H21.78V8H18.259Z" fill="white"/>
</svg>
